{
    "asset" : {
        "generator" : "Khronos glTF Blender I/O v1.5.17",
        "version" : "2.0"
    },
    "scene" : 0,
    "scenes" : [
        {
            "name" : "Scene",
            "nodes" : [
                0,
                1,
                2
            ]
        }
    ],
    "nodes" : [
        {
            "name" : "Light",
            "rotation" : [
                0.16907575726509094,
                0.7558803558349609,
                -0.27217137813568115,
                0.570947527885437
            ],
            "translation" : [
                5.0572919845581055,
                -1.6333799362182617,
                1.6803812980651855
            ]
        },
        {
            "mesh" : 0,
            "name" : "path5169",
            "rotation" : [
                0.7071068286895752,
                0,
                0,
                0.7071068286895752
            ],
            "scale" : [
                40,
                40,
                40
            ]
        },
        {
            "mesh" : 1,
            "name" : "path5287",
            "rotation" : [
                0.7071068286895752,
                0,
                0,
                0.7071068286895752
            ],
            "scale" : [
                40,
                40,
                40
            ],
            "translation" : [
                0.06534208357334137,
                0.27996066212654114,
                0
            ]
        }
    ],
    "materials" : [
        {
            "doubleSided" : true,
            "name" : "SVGMat.006",
            "pbrMetallicRoughness" : {
                "baseColorFactor" : [
                    1,
                    0.4869771897792816,
                    0,
                    1
                ],
                "metallicFactor" : 0,
                "roughnessFactor" : 0.4000000059604645
            }
        },
        {
            "doubleSided" : true,
            "name" : "SVGMat.007",
            "pbrMetallicRoughness" : {
                "baseColorFactor" : [
                    0.9473065137863159,
                    0.9473065137863159,
                    0.4969329833984375,
                    1
                ],
                "metallicFactor" : 0,
                "roughnessFactor" : 0.4000000059604645
            }
        }
    ],
    "meshes" : [
        {
            "name" : "path5169",
            "primitives" : [
                {
                    "attributes" : {
                        "POSITION" : 0,
                        "NORMAL" : 1,
                        "TEXCOORD_0" : 2
                    },
                    "indices" : 3,
                    "material" : 0
                }
            ]
        },
        {
            "name" : "path5287",
            "primitives" : [
                {
                    "attributes" : {
                        "POSITION" : 4,
                        "NORMAL" : 5,
                        "TEXCOORD_0" : 6
                    },
                    "indices" : 7,
                    "material" : 1
                }
            ]
        }
    ],
    "accessors" : [
        {
            "bufferView" : 0,
            "componentType" : 5126,
            "count" : 637,
            "max" : [
                0.09129029512405396,
                0.009999999776482582,
                0.08123528957366943
            ],
            "min" : [
                -0.08345557004213333,
                -0.009999999776482582,
                -0.09328167140483856
            ],
            "type" : "VEC3"
        },
        {
            "bufferView" : 1,
            "componentType" : 5126,
            "count" : 637,
            "type" : "VEC3"
        },
        {
            "bufferView" : 2,
            "componentType" : 5126,
            "count" : 637,
            "type" : "VEC2"
        },
        {
            "bufferView" : 3,
            "componentType" : 5123,
            "count" : 1140,
            "type" : "SCALAR"
        },
        {
            "bufferView" : 4,
            "componentType" : 5126,
            "count" : 4517,
            "max" : [
                0.07644177228212357,
                0.010999999940395355,
                0.0726797953248024
            ],
            "min" : [
                -0.07304837554693222,
                -0.010999999940395355,
                -0.07250391691923141
            ],
            "type" : "VEC3"
        },
        {
            "bufferView" : 5,
            "componentType" : 5126,
            "count" : 4517,
            "type" : "VEC3"
        },
        {
            "bufferView" : 6,
            "componentType" : 5126,
            "count" : 4517,
            "type" : "VEC2"
        },
        {
            "bufferView" : 7,
            "componentType" : 5123,
            "count" : 8172,
            "type" : "SCALAR"
        }
    ],
    "bufferViews" : [
        {
            "buffer" : 0,
            "byteLength" : 7644,
            "byteOffset" : 0
        },
        {
            "buffer" : 0,
            "byteLength" : 7644,
            "byteOffset" : 7644
        },
        {
            "buffer" : 0,
            "byteLength" : 5096,
            "byteOffset" : 15288
        },
        {
            "buffer" : 0,
            "byteLength" : 2280,
            "byteOffset" : 20384
        },
        {
            "buffer" : 0,
            "byteLength" : 54204,
            "byteOffset" : 22664
        },
        {
            "buffer" : 0,
            "byteLength" : 54204,
            "byteOffset" : 76868
        },
        {
            "buffer" : 0,
            "byteLength" : 36136,
            "byteOffset" : 131072
        },
        {
            "buffer" : 0,
            "byteLength" : 16344,
            "byteOffset" : 167208
        }
    ],
    "buffers" : [
        {
            "byteLength" : 183552,
            "uri" : "data:application/octet-stream;base64,"
        }
    ]
}
